<svg xmlns="http://www.w3.org/2000/svg" width="59.942" height="59.942" viewBox="0 0 59.942 59.942">
  <g id="sltung-logo-mark" transform="translate(0 0)">
    <path id="Path_3255" data-name="Path 3255" d="M0,29.971A29.971,29.971,0,1,1,29.971,59.942,29.971,29.971,0,0,1,0,29.971" transform="translate(0 0)" fill="#fff"/>
    <path id="Union_3" data-name="Union 3" d="M21.716,41.994V31.324h8.371v10.67Zm-9.757,0V31.324h8.372v10.67ZM31.347,30.028v-8.37H42v8.37ZM0,30.028v-8.37H10.723v8.37Zm31.347-9.755V11.9H42v8.371ZM0,20.273V11.9H10.723v8.371ZM21.716,10.7V0h8.371V10.7Zm-9.757,0V0h8.372V10.7Z" transform="translate(8.886 8.892)" fill="#008a32"/>
    <path id="Union_4" data-name="Union 4" d="M26.652,54.63V49.516h1.384v5.113q-.356.01-.714.01Q26.985,54.639,26.652,54.63ZM24,54.437l.481-4.921h1.391l-.493,5.054Q24.681,54.52,24,54.437Zm4.922-4.921H30.31l.369,4.918q-.683.084-1.378.134Zm2.309,0h1.411l.661,4.466q-.673.15-1.36.266Zm-10,4.439.9-4.439h1.414l-.957,4.712Q21.9,54.109,21.223,53.955Zm12.109-4.439h1.443l1.056,3.759q-.657.212-1.329.39ZM18.744,53.264l1.137-3.748h1.447L20.07,53.665Q19.4,53.481,18.744,53.264Zm16.92-3.748h1.488l1.159,2.851q-.636.27-1.289.507Zm-19.4,2.792,1.153-2.792h1.5l-1.37,3.321Q16.9,52.588,16.266,52.308Zm-2.564-1.3,3.342-6.17v2.908l-2.125,3.923Q14.3,51.354,13.7,51.008Zm23.965-3.276V45.142L40.983,51c-.408.216-.729.421-1.149.616ZM11.293,49.444,17.044,41.5v2.014l-4.609,6.718Q11.853,49.852,11.293,49.444Zm26.374-5.617V41.486L43.5,49.312q-.547.425-1.116.823ZM9.148,47.717l7.9-9.119v1.928L10.2,48.613Q9.666,48.177,9.148,47.717Zm28.519-7.212V38.437l7.955,9.125c-.333.319-.677.628-1.027.93ZM7.309,45.91l8.109-8.244h1.626L8.263,46.915Q7.774,46.426,7.309,45.91Zm30.358-8.244h1.84l7.9,8.138c-.3.353-.627.7-.944,1.035Zm2.449,0h1.755l7.02,6.406c-.259.322-.494.633-.839,1.035Zm-34.5,6.213,7.407-6.213H14.74L6.464,44.974Q6.027,44.437,5.616,43.879Zm-1.3-1.825L10.2,37.666H12.32L5.073,43.216Q4.682,42.645,4.321,42.053ZM42.6,37.666h1.692l5.985,4.49c-.261.381-.382.563-.663.93Zm2.618,0h2.34l3.9,2.506q-.33.609-.69,1.2ZM2.99,39.744l3.923-2.078H9.231l-5.594,3.3Q3.3,40.365,2.99,39.744Zm46.528-2.078v-1.31l3.075,1.364c-.176.427-.308.728-.506,1.144ZM1.941,37.444l3.252-1.238v1.286l-2.726,1.2C2.277,38.273,2.11,37.876,1.941,37.444Zm47.577-2.078V33.906l3.964,1.316q-.2.664-.434,1.315Zm-48.432-.4L5.193,33.76v1.455L1.506,36.289Q1.28,35.636,1.085,34.968ZM49.518,33.1V31.783l4.59.949q-.138.682-.308,1.351ZM.506,32.577l4.687-1.049v1.419L.806,33.93Q.639,33.261.506,32.577Zm49.011-1.635V29.655l5,.3q-.066.693-.167,1.375Zm-49.393-1,5.068-.41v1.287l-4.9.5Q.191,30.64.125,29.948Zm49.393-1V27.666l5.121.117q-.011.7-.057,1.384ZM0,27.669l5.191.011v1.169l-5.138.2Q.011,28.365,0,27.669ZM49.518,25.7l5.065-.2q.046.687.057,1.384l-5.122.095ZM0,26.885c.01-.464.029-.9.06-1.354l5.132.185v1.169Zm49.518-3.053,4.823-.6q.1.682.17,1.375l-4.993.509Zm-49.384.76Q.2,23.9.3,23.217l4.888.282v1.287ZM49.518,21.6l4.3-.963q.168.668.3,1.351l-4.6,1.031ZM.553,21.811c.094-.454.2-.9.313-1.349l4.327,1.106v1.2Zm48.964-2.482,3.6-1.044q.229.651.425,1.318l-4.02,1.18ZM1.15,19.441c.135-.443.274-.86.431-1.293L5.193,19.41v1.242Zm48.368-2.284,2.688-1.135q.286.629.542,1.275l-3.229,1.255ZM2.03,16.945c.178-.427.319-.75.518-1.167l2.645,1.375v1.268Zm43.229.1,5.731-3.4q.339.6.648,1.223l-3.953,2.176Zm-2.815,0L49.6,11.469c.261.381.432.643.673,1.037l-5.929,4.54Zm-2.488,0L48.189,9.67q.44.536.85,1.094l-7.365,6.281Zm-2.289,0L46.448,7.76q.49.489.956,1l-8.086,8.283Zm-22.476,0-7.668-8.5c.3-.352.7-.7,1.05-1.051l8.34,9.548Zm-2.313,0-7-6.645c.215-.313.54-.731.889-1.15l7.867,7.795Zm-2.516,0-5.985-4.63q.395-.571.816-1.119l7.035,5.749Zm-3.209,0L3.17,14.506q.333-.609.7-1.2l5.248,3.737ZM9.419,6.8q.5-.477,1.03-.926l6.6,8.524V16.47ZM37.667,14l6.754-7.985q.54.434,1.057.895l-7.811,9.127ZM11.243,5.252c.417-.3.742-.558,1.183-.85l4.618,6.554V13.29Zm26.424,5.754L42.2,4.4q.581.379,1.141.785l-5.672,7.941Zm0-4.243,2.055-3.794q.617.316,1.217.661L37.667,9.454ZM13.691,3.654a13.658,13.658,0,0,1,1.258-.7l2.095,4.019V9.449ZM35.7,5.2,37.1,1.8q.647.249,1.28.53L37.2,5.2Zm-2.393,0L34.59.979q.67.184,1.325.4L34.759,5.2Zm-2.194,0L32.088.414q.684.121,1.358.274L32.531,5.2ZM28.8,5.2,29.3.072Q30,.121,30.683.206L30.2,5.2Zm-2.152,0V.008Q26.985,0,27.322,0q.358,0,.714.009V5.2ZM24.5,5.2l-.486-5c.456-.054.79-.086,1.253-.119L25.676,5.2Zm-2.53,0L21.4.644Q22.077.5,22.763.381L23.275,5.2Zm-2.012,0L18.9,1.319c.438-.139.786-.241,1.234-.358L21.185,5.2Zm-2.424,0L16.4,2.261c.425-.179.7-.285,1.133-.441L18.807,5.2Z" transform="translate(2.565 2.551)" fill="#ffec00"/>
    <path id="Path_3322" data-name="Path 3322" d="M48.132,49.245c-1.712.163-3.262.327-3.587-.326s.815-.44,1.1-.465,2.324.106,3.058,0,1.386-.432,1.386-.8-.2-.652-1.467-.734-5.3.151-5.219-.7,1.549-.523,1.916-.523,4.28,0,4.647-2.568C50.319,40.663,46.19,39.173,45,39.1a42.324,42.324,0,0,0,4.476-.084c.734-.163,1.472-.326,1.47-.774s-.776-.724-1.755-.811-1.826-.33-1.83-.656.281-.431,1.055-.4,2.12-.187,2.12-.934-1.264-.672-1.834-.688a23.794,23.794,0,0,0-2.855-.03.242.242,0,0,1-.245-.12,6.391,6.391,0,0,0-1.017-1.392,3.406,3.406,0,0,0-2.736-.692c-1.224.2-1.687,1.077-2.371,2a.647.647,0,0,1-.519.26H37.044s-2.569-.219-2.569.665,1.182.943,1.59.934.815,0,.815,0,.674-.091.724.194-.317.489-.724.653a8.2,8.2,0,0,1-1.753.344c-.367.023-1.345.185-1.3.675.057.679,1.7.665,2.16.707a23.774,23.774,0,0,0,2.528.108s1.509-.018,1.876.011c0,0-5.463.656-5.463,3.481s3.751,3.292,4.4,3.324,2.161-.356,2.2.2-.9.845-1.63.845-2.365.041-3.017,0-1.957.032-1.957.505.53,1.052,1.671,1.028,1.671-.133,2.243-.146c0,0,1.63-.061,1.63.431,0,0-.2.928-1.63.778s-4.444-.445-4.729.253,1.019,1.066,1.631,1.066H48.866c1.947,0,2-.531,2.038-.857s-1.06-.9-2.772-.734M46.587,41.12s.581.45.459.767-.856.5-1.56.378a4.7,4.7,0,0,1-1.712-.613.764.764,0,0,1,0-.977,6.489,6.489,0,0,1,1.712,0,2.216,2.216,0,0,1,1.1.444m-8.534.767c-.122-.317.458-.767.458-.767a2.216,2.216,0,0,1,1.1-.444,6.494,6.494,0,0,1,1.712,0,.765.765,0,0,1,0,.977,6.118,6.118,0,0,1-1.712.613c-.7.122-1.437-.061-1.559-.378M41.5,44.435c-.04.153-.2.275-1.731.153-.228-.018-1.705-.306-1.469-.825a.408.408,0,0,1,.047-.079c.209-.275,1.12-.168,1.422-.136,1.439.153,1.771.733,1.731.886m-.509-7.215c-.241-.015-.95-.2-1.062-.436a.258.258,0,0,1-.027-.114c0-.375.89-.634,1.149-.642.856-.031,2.691-.031,3,0s1.1.091,1.131.52-.458.673-.886.673-2.813.03-3.3,0m2.1,7.306a.334.334,0,0,1-.033-.062c-.231-.554,1.459-.831,1.671-.854,1.773-.189,1.953-.072,2.021.064.137.271-.311.714-1.981.928-.33.042-1.461.254-1.678-.076" transform="translate(-12.498 -11.997)" fill="#47b"/>
  </g>
</svg>
